<svg xmlns="http://www.w3.org/2000/svg" width="113" height="113"><path d="M56.5 113a56.5 56.5 0 1 1 0-.022" style="fill:#b4b4da"/><path d="M46.14 41.115v3.462a10.744 10.744 0 0 0-4.6 8.809v6.464a3.031 3.031 0 0 1-1.534-2.63v22.243a3.068 3.068 0 0 1-6.136 0 3.068 3.068 0 0 1-6.136 0V57.225a3.068 3.068 0 1 1-6.136 0v-16.11a7.678 7.678 0 0 1 7.67-7.67h9.2a7.678 7.678 0 0 1 7.67 7.67"/><path d="M41.503 26.274a7.67 7.67 0 1 0-7.67 7.67 7.678 7.678 0 0 0 7.67-7.67M91.424 45.633v16.106a3.068 3.068 0 1 1-6.136 0v22.242a3.068 3.068 0 0 1-6.136 0 3.068 3.068 0 0 1-6.136 0V61.739a2.978 2.978 0 0 1-1.534 2.63V53.302a10.718 10.718 0 0 0-4.492-8.721 7.635 7.635 0 0 1 7.56-6.618h9.2a7.678 7.678 0 0 1 7.67 7.67"/><path d="M86.836 30.828a7.67 7.67 0 1 0-7.67 7.67 7.678 7.678 0 0 0 7.67-7.67M60.949 58.516a6.182 6.182 0 0 1-4.164 1.359l-.131 1.928h-3.857l-.131-4.777H54.2a7.183 7.183 0 0 0 3-.482 1.79 1.79 0 0 0 1.052-1.775 2.012 2.012 0 0 0-.482-1.4 1.867 1.867 0 0 0-1.359-.526 1.8 1.8 0 0 0-1.424.548 1.961 1.961 0 0 0-.5 1.4h-4.12a5.215 5.215 0 0 1 .657-2.8 4.6 4.6 0 0 1 2.1-1.972 7.148 7.148 0 0 1 3.353-.745 6.508 6.508 0 0 1 4.383 1.424 5.1 5.1 0 0 1 1.649 4.051 4.717 4.717 0 0 1-1.56 3.747m-4.3 9.269a2.663 2.663 0 0 1-1.863.679 2.621 2.621 0 0 1-1.877-.678 2.33 2.33 0 0 1 0-3.375 2.854 2.854 0 0 1 3.747 0 2.268 2.268 0 0 1 .723 1.709 2.175 2.175 0 0 1-.723 1.665m4.448-22.33h-9.2a7.678 7.678 0 0 0-7.67 7.67v16.111a3.068 3.068 0 1 0 6.136 0v22.238a3.068 3.068 0 1 0 6.136 0 3.068 3.068 0 1 0 6.136 0V69.216a3.068 3.068 0 1 0 6.136 0v-16.11a7.678 7.678 0 0 0-7.67-7.67"/><path d="M64.169 38.382a7.67 7.67 0 1 1-7.67-7.67 7.678 7.678 0 0 1 7.67 7.67"/></svg>