<svg xmlns="http://www.w3.org/2000/svg" width="363" height="359"><defs><filter id="a" x="0" y="0" width="363" height="359" filterUnits="userSpaceOnUse"><feOffset dy="6"/><feGaussianBlur stdDeviation="3" result="b"/><feFlood flood-opacity=".161"/><feComposite operator="in" in2="b"/><feComposite in="SourceGraphic"/></filter></defs><g style="filter:url(#a)"><g style="fill:#f6f1ff"><path d="M325 339H20a17.882 17.882 0 0 1-12.728-5.272C3.872 330.328 2 325.808 2 321V20c0-4.808 1.872-9.328 5.272-12.728C10.672 3.872 15.192 2 20 2h305c4.808 0 9.328 1.872 12.728 5.272 3.4 3.4 5.272 7.92 5.272 12.728v301c0 4.808-1.872 9.328-5.272 12.728-3.4 3.4-7.92 5.272-12.728 5.272Z" style="stroke:none" transform="translate(9 3)"/><path d="M20 4A15.895 15.895 0 0 0 8.686 8.686 15.895 15.895 0 0 0 4 20v301c0 4.274 1.664 8.292 4.686 11.314A15.895 15.895 0 0 0 20 337h305c4.274 0 8.292-1.664 11.314-4.686A15.895 15.895 0 0 0 341 321V20c0-4.274-1.664-8.292-4.686-11.314A15.895 15.895 0 0 0 325 4H20m0-4h305c11.046 0 20 8.954 20 20v301c0 11.046-8.954 20-20 20H20c-11.046 0-20-8.954-20-20V20C0 8.954 8.954 0 20 0Z" style="fill:#462c6b;stroke:none" transform="translate(9 3)"/></g></g></svg>