<svg xmlns="http://www.w3.org/2000/svg" width="199" height="47"><defs><filter id="a" x="0" y="0" width="199" height="47" filterUnits="userSpaceOnUse"><feOffset dx="4" dy="4"/><feGaussianBlur stdDeviation="2" result="b"/><feFlood flood-opacity=".549"/><feComposite operator="in" in2="b"/><feComposite in="SourceGraphic"/></filter></defs><g style="filter:url(#a)"><g style="fill:#91b9dc"><path d="M183 34.5H4C2.07 34.5.5 32.93.5 31V4C.5 2.07 2.07.5 4 .5h179c1.93 0 3.5 1.57 3.5 3.5v27c0 1.93-1.57 3.5-3.5 3.5Z" style="stroke:none" transform="translate(2 2)"/><path d="M4 1C2.346 1 1 2.346 1 4v27c0 1.654 1.346 3 3 3h179c1.654 0 3-1.346 3-3V4c0-1.654-1.346-3-3-3H4m0-1h179a4 4 0 0 1 4 4v27a4 4 0 0 1-4 4H4a4 4 0 0 1-4-4V4a4 4 0 0 1 4-4Z" style="fill:#462c6b;stroke:none" transform="translate(2 2)"/></g></g></svg>