<svg xmlns="http://www.w3.org/2000/svg" width="110" height="110"><defs><style>.b{fill:#231f20}</style></defs><path d="M55 110a55 55 0 1 1 0-.021" style="fill:#d6a8ce"/><path class="b" d="M72.646 75.536a8.153 8.153 0 1 1 8.075-8.153 8.119 8.119 0 0 1-8.078 8.153m13.219 3.706V33.289a1.454 1.454 0 0 0-1.341-1.461l-33.906-2.859v-.974a1.635 1.635 0 0 0-.42-1.059l-.567-.572 5.56-5.612a1.505 1.505 0 0 0 0-2.1l-4.153-4.168a1.472 1.472 0 0 0-2.077 0l-5.56 5.612-.567-.572a1.482 1.482 0 0 0-1.888-.169l-10.282 7.412a1.489 1.489 0 0 0-.608 1.207v8.894a10.352 10.352 0 0 0 2.937 7.242l-3.042 3.071 4.154 4.193 3.294-3.346v6.628h5.875v-6.628l3.294 3.346 4.156-4.193-3.042-3.071a10.927 10.927 0 0 0 2.14-3.2l9.631 2.435v16.627h-7.345v-4.448h-2.938v4.447h-23.5a1.48 1.48 0 0 0-1.469 1.482v2.965a1.48 1.48 0 0 0 1.469 1.482h26.438v13.342H46.23v-8.894a1.48 1.48 0 0 0-1.469-1.482h-8.813a1.48 1.48 0 0 0-1.469 1.482v8.894H21.261v8.894h67.583v-8.894h-2.937Z"/><path class="b" d="M76.408 66.985a3.706 3.706 0 1 1-3.706-3.706 3.7 3.7 0 0 1 3.706 3.706"/></svg>