<svg xmlns="http://www.w3.org/2000/svg" width="110" height="110"><path d="M55 110a55 55 0 1 1 0-.021" style="fill:#b8babc"/><path d="M75.818 39.497 86.976 60.22H64.66ZM45.339 60.22H23.023l11.162-20.723Zm15.568.887a1.484 1.484 0 0 0-.082.222c-.021.111-.062.222-.082.355v.089c0 5.076 6.625 9.065 15.076 9.065s15.076-3.99 15.076-9.065v-.089a.99.99 0 0 0-.082-.355.332.332 0 0 0-.082-.222.171.171 0 0 0-.041-.133L78.136 37.635a3.983 3.983 0 0 0 1.272-2.948 3.733 3.733 0 0 0-3.589-3.879 3.483 3.483 0 0 0-2.565 1.157 25.535 25.535 0 0 0-16.819-7.78V22.12a3.9 3.9 0 0 0 2.15-3.546 3.6 3.6 0 1 0-7.179 0 3.9 3.9 0 0 0 2.154 3.546v2.061a25.491 25.491 0 0 0-16.815 7.784 3.483 3.483 0 0 0-2.56-1.157 3.733 3.733 0 0 0-3.589 3.879 3.947 3.947 0 0 0 1.272 2.948L19.31 60.974a.922.922 0 0 1-.041.133.971.971 0 0 0-.082.222c-.021.111-.062.222-.082.355v.089c0 5.076 6.625 9.065 15.076 9.065s15.076-3.99 15.076-9.065v-.089a.99.99 0 0 0-.082-.355.332.332 0 0 0-.082-.222.171.171 0 0 0-.041-.133L36.498 37.635a3.853 3.853 0 0 0 1.231-2.549 5.525 5.525 0 0 0 .861-.731 22.743 22.743 0 0 1 14.973-7.048v42.8a3.9 3.9 0 0 0-2.154 3.546 5.29 5.29 0 0 0 .123 1 7.835 7.835 0 0 0-3.691 6.512 26.749 26.749 0 0 0-11.756 6.96 3.542 3.542 0 0 1-2.543 1.064h-.082a1.556 1.556 0 0 0 0 3.1h43.076a1.556 1.556 0 0 0 0-3.1h-.082a3.542 3.542 0 0 1-2.543-1.064 27.076 27.076 0 0 0-11.753-6.96 7.835 7.835 0 0 0-3.692-6.516 5.071 5.071 0 0 0 .123-1 3.9 3.9 0 0 0-2.154-3.544V27.284a22.7 22.7 0 0 1 14.973 7.048 6.518 6.518 0 0 0 .841.731 3.917 3.917 0 0 0 1.251 2.549l-12.552 23.34a.922.922 0 0 1-.041.133"/></svg>