<svg xmlns="http://www.w3.org/2000/svg" width="110.5" height="110.521"><defs><style>.b{fill:#fff}</style></defs><path d="M55.25 110.521a55.261 55.261 0 1 1 0-.021" style="fill:#58595b"/><path class="b" d="M51.616 21.68a26.6 26.6 0 0 0 5.425.212v1.823h-5.425Zm1.06 6.739a3.4 3.4 0 0 0 1.653.848 4.441 4.441 0 0 0 2.034-1.162c.085-.064.127-.106.212-.17.276-.276.53-.487.7-.657a1.734 1.734 0 0 0 .212-.233 8.779 8.779 0 0 0 .487-2.988v-2.335c1.081-.3 1.738-.869 1.441-1.95.636-1.229-.235-1.567-.335-1.801a1.948 1.948 0 0 0-.932-1.42c-2.968-1.992-7.507-.846-8.291 1.654-.381 1.229-.721 3.264.318 3.306a2.353 2.353 0 0 1 .487.042v2.48c0 .276.042.593.064.932 0 .3.064.572.085.848v.148a3.248 3.248 0 0 0 .3 1.06 11.011 11.011 0 0 0 1.526 1.378m16.315-2.714h-3.73a1.2 1.2 0 0 0-1.081-.678 1.173 1.173 0 0 0-1.061.678h-3.73a.525.525 0 0 0-.53.53.535.535 0 0 0 .381.53l-1 5.235a43.039 43.039 0 0 0-1.759-.551l-.085-2.162a4.458 4.458 0 0 1-2.034.932 3.532 3.532 0 0 1-1.738-.678l-.106 2.564c-.275.127-.742.339-1.25.593a46.278 46.278 0 0 0 8.837 9.833c.318-1.123.678-2.48.954-3.793a3.206 3.206 0 0 1-1.293.276 2.681 2.681 0 0 1-2.882-2.416.462.462 0 0 1 .487-.466h.106l.127-.742.615-3.264s.106-.042.148-.064a5.91 5.91 0 0 1 .869-.3l.509-2.734.487 2.522a6.118 6.118 0 0 1 .954-.127l-.848-4.6h2.781a1.173 1.173 0 0 0 1.06.678 1.229 1.229 0 0 0 1.081-.678h2.759l-.064.381a6.442 6.442 0 0 1 .53-.381l.551-.424c.148-.106.3-.191.424-.3a.516.516 0 0 0-.487-.381"/><path class="b" d="M61.111 36.029h-2.67l.064-.3.275-1.462.381-1.992.106-.615a6.322 6.322 0 0 1 1-.212l.212 1.123.085.424.487 2.48.106.551ZM67.968 27.113l-1.06 5.616a74.986 74.986 0 0 1-4.323 3.518.515.515 0 0 0-.381-.191h-.106l-.254-1.314-.509-2.776-.106-.636a9.182 9.182 0 0 1 1.123-.064h.042c1.632-1.208 3.73-2.819 5.616-4.154M68.957 30.927c-.3.254-.593.509-.89.805l.509-2.776.381 1.992Z"/><path class="b" d="M73.681 25.453a1.518 1.518 0 0 1-.339 1.25c-.381.487-1.8 1.886-3.56 3.518l-.657-3.454a.548.548 0 0 0 .381-.509s0-.127-.042-.17c.3-.212.572-.381.826-.551-.4-.487-.763-1.483-1.06-3.709a53.143 53.143 0 0 0-1.611-8.18 4.7 4.7 0 0 1-2.691-.318v8.922h-1.485v-9.515a1.582 1.582 0 0 1-1.081-1.611c-.106-1.314-.805-4.7.742-4.09.106.042.233.106.339.148v-.868a.733.733 0 0 1 .721-.742h.042a.733.733 0 0 1 .721.742v1.628a21.709 21.709 0 0 1 4.027 2.755c.276.085.509.381.742 1.017a108.9 108.9 0 0 1 3.947 12.995 5.042 5.042 0 0 1 .064.763"/><path class="b" d="M63.434 23.182v1.8h1.5v-1.8ZM62.676 36.508a2.44 2.44 0 0 1-1.611 2.162 5.809 5.809 0 0 0 .106-.593c.042-.212.085-.445.106-.657a1.331 1.331 0 0 0 .064-.4v-.042h.042a6.325 6.325 0 0 0 .742-.487c.127-.085.275-.191.424-.276a.446.446 0 0 1 .106.276M71.478 36.516a2.688 2.688 0 0 1-2.9 2.416 2.668 2.668 0 0 1-2.882-2.416.462.462 0 0 1 .487-.466h.106l.615-3.327c.4-.318.784-.678 1.166-1l-.827 4.3h2.67l-.954-5.107.827-.763 1.1 5.87h.106a.475.475 0 0 1 .487.466M40.065 72.502c.53-.3.89-.17.89.106 0 .318.191.466.4.318a1.2 1.2 0 0 0 .424-.89c0-.975-.678-1.25-1.547-.848l-.233-1.25a8.068 8.068 0 0 0 1.7-2.31 11.921 11.921 0 0 0-.445-4.027c.17-2.628.53-4.027 1.1-8.265a8.528 8.528 0 0 0-.212-4.472c1.589-2.395 6.188-12.122 6.379-12.652.805 2.564 2.013 5.531 2.352 6.7-.487 1.462-1.4 3.645-2.2 5.764a21.621 21.621 0 0 0-1.568 5.531 49.128 49.128 0 0 0 .657 7.1c0 .615-.36 3.179-.254 3.73a11.734 11.734 0 0 1 .7 3.6 25.074 25.074 0 0 0-.339 3.687c.064 1.356-.36 2.416-.827 4.535s-.487 6.273-1.4 9.07c-.445 1.378-.975 4.005-1.674 6.57l-3.924-22.037ZM55.553 61.8c1.78 1.632 1.717 4.472 1.78 6.591 0 4.429-1.42 8.689-2.395 12.906-.424 4.323 1.42 8.392 2.48 12.61-1.653-4.005-3.815-8.159-3.666-12.694.721-4.3 2.162-8.477 2.2-12.864 0-2.056.212-4.281-1.144-5.828-1.717-2.183-4.79-5.044-4.154-8.032-.127 1.8 1.166 3.179 2.225 4.472.805.954 1.8 1.95 2.691 2.819m10.223 38.908s-2.882-11.571-3.9-15.826c-.551-2.246.191-4.3.042-6.633-.17-2.331-.7-4.069-.7-5.4s1.314-12.016 1.229-16.17c-.085-3.624-2.374-8.477-2.925-12.122.085-.3.191-.742.318-1.229a44.576 44.576 0 0 1-9.45-10.436c-1.272.615-3.984 1.293-4.662 2.14-1.8 2.183-5.383 11.931-6.188 14.835a6.028 6.028 0 0 0-.466 1.4 92.919 92.919 0 0 0-.466 10.7s-.042.064-.064.106l-.3-1.589a.758.758 0 0 0-.869-.615h-.039a.787.787 0 0 0-.615.869l.657 3.544c-.106.233-.233.445-.3.572-.53.975.233 5.15.233 5.531s.3 1.314.805 1.166a2.579 2.579 0 0 0 .487-.339l.212 1.166a4.386 4.386 0 0 0-1 2.416c0 .339.191.487.424.318a1.217 1.217 0 0 0 .4-.89 2.521 2.521 0 0 1 .7-1.208l4.121 23.138c-.657 2.034-1.42 3.836-2.374 4.578h24.626Z"/></svg>