<svg xmlns="http://www.w3.org/2000/svg" width="28.469" height="23.132"><path d="M8.943 25.131c10.743 0 16.62-8.9 16.62-16.608 0-.249 0-.5-.011-.751a11.9 11.9 0 0 0 2.916-3.028 11.847 11.847 0 0 1-3.361.922 5.873 5.873 0 0 0 2.575-3.233 11.624 11.624 0 0 1-3.713 1.411 5.847 5.847 0 0 0-9.957 5.327A16.592 16.592 0 0 1 1.971 3.07a5.852 5.852 0 0 0 1.811 7.8 5.913 5.913 0 0 1-2.644-.726v.08a5.85 5.85 0 0 0 4.683 5.726 5.7 5.7 0 0 1-1.539.2 5.747 5.747 0 0 1-1.092-.1 5.841 5.841 0 0 0 5.457 4.05 11.722 11.722 0 0 1-7.26 2.5A11.244 11.244 0 0 1 0 22.525a16.626 16.626 0 0 0 8.943 2.607Z" transform="translate(0 -1.999)" style="fill:#462c6b"/></svg>