<svg xmlns="http://www.w3.org/2000/svg" width="110.5" height="110.5" viewBox="0 0 110.5 110.5"><defs><style>.a{fill:#b0a7c6;}</style></defs><path class="a" d="M55.25,110.5a55.25,55.25,0,1,1,0-.021"/><path d="M24.824,28.988a21.3,21.3,0,0,1-3.371-7.541H55.607a21.352,21.352,0,0,1-3.392,7.541H24.824ZM52.215,62.171a21.352,21.352,0,0,1,3.392,7.541H21.453a21.352,21.352,0,0,1,3.392-7.541H52.237Zm-4.558-19.5a54.673,54.673,0,0,0,8.608-8.956V33.7c3.244-4.415,5.7-9.568,5.724-15.187v-.127a38.288,38.288,0,0,0-.7-7.308,3.033,3.033,0,0,0-5.957,1.141c.191,1.056.339,2.133.445,3.189H21.241a32.059,32.059,0,0,1,.445-3.189,3.022,3.022,0,0,0-5.936-1.141,40.591,40.591,0,0,0-.7,7.372c0,16.518,21.01,29.212,21.922,29.761a60.654,60.654,0,0,1,10.134,7.963H29.975c1.59-1.563,3.2-2.936,4.643-4.1A60.32,60.32,0,0,1,29.4,48.526a53.27,53.27,0,0,0-8.565,8.914c0,.021-.042.063-.064.084-3.244,4.415-5.7,9.611-5.7,15.25a38.785,38.785,0,0,0,.7,7.372,3.05,3.05,0,0,0,2.968,2.45,1.7,1.7,0,0,0,.572-.063,3,3,0,0,0,2.4-3.527c-.212-1.056-.339-2.133-.445-3.211H55.8a26.6,26.6,0,0,1-.445,3.211,3.02,3.02,0,0,0,2.4,3.527,2.794,2.794,0,0,0,.572.063,3.073,3.073,0,0,0,2.989-2.45,41.9,41.9,0,0,0,.7-7.329V72.69c0-5.576-2.438-10.709-5.661-15.1-.064-.084-.127-.148-.191-.232a61.722,61.722,0,0,0-16.07-14.3,61.633,61.633,0,0,1-10.134-7.963H47.106a58.994,58.994,0,0,1-4.664,4.1,60.32,60.32,0,0,1,5.215,3.549" transform="translate(16.73 9.671)"/></svg>