<svg xmlns="http://www.w3.org/2000/svg" width="171" height="40" viewBox="0 0 171 40"><defs><style>.a{fill:#462c6b;}</style></defs><path class="a" d="M40,20.121A20,20,0,1,0,16.871,40V25.938H11.8V20.124h5.079V15.687c0-5.042,2.987-7.826,7.554-7.826a30.589,30.589,0,0,1,4.477.392V13.2H26.385c-2.482,0-3.257,1.552-3.257,3.145v3.775h5.544l-.885,5.814H23.125V40A20.09,20.09,0,0,0,40,20.121Z" transform="translate(0.002 0.001)"/><path class="a" d="M0,2.865A2.9,2.9,0,0,1,2.937,0H37.063A2.9,2.9,0,0,1,40,2.865v34.27A2.9,2.9,0,0,1,37.063,40H2.937A2.9,2.9,0,0,1,0,37.135Zm12.358,30.62V15.422h-6V33.485Zm-3-20.53a3.13,3.13,0,1,0,.04-6.24,3.129,3.129,0,1,0-.08,6.24Zm12.27,20.53V23.4a4.076,4.076,0,0,1,.2-1.465,3.284,3.284,0,0,1,3.08-2.195c2.173,0,3.04,1.655,3.04,4.085v9.662h6V23.125c0-5.55-2.96-8.13-6.91-8.13a5.964,5.964,0,0,0-5.413,2.982v.063h-.04l.04-.063V15.422h-6c.075,1.695,0,18.062,0,18.062Z" transform="translate(63 0)"/><path class="a" d="M14.136,38.564c16.982,0,26.272-14.071,26.272-26.252,0-.394,0-.793-.017-1.187A18.8,18.8,0,0,0,45,6.338,18.726,18.726,0,0,1,39.687,7.8a9.284,9.284,0,0,0,4.07-5.11,18.374,18.374,0,0,1-5.87,2.23,9.242,9.242,0,0,0-15.739,8.421A26.227,26.227,0,0,1,3.116,3.692,9.25,9.25,0,0,0,5.979,16.016,9.346,9.346,0,0,1,1.8,14.869V15a9.247,9.247,0,0,0,7.4,9.051,9.008,9.008,0,0,1-2.433.323,9.084,9.084,0,0,1-1.727-.16,9.233,9.233,0,0,0,8.626,6.4A18.529,18.529,0,0,1,2.194,34.57,17.773,17.773,0,0,1,0,34.443a26.28,26.28,0,0,0,14.136,4.12Z" transform="translate(126 -1.999)"/></svg>