<svg xmlns="http://www.w3.org/2000/svg" width="113" height="113" viewBox="0 0 113 113"><defs><style>.a{fill:#b4b4da;}</style></defs><path class="a" d="M56.5,113a56.5,56.5,0,1,1,0-.022" transform="translate(0 0)"/><path d="M34.563,23.29v3.462a10.744,10.744,0,0,0-4.6,8.809v6.464a3.031,3.031,0,0,1-1.534-2.63V61.638a3.068,3.068,0,0,1-6.136,0,3.068,3.068,0,0,1-6.136,0V39.4a3.068,3.068,0,1,1-6.136,0V23.29a7.678,7.678,0,0,1,7.67-7.67h9.2a7.678,7.678,0,0,1,7.67,7.67" transform="translate(11.577 17.825)"/><path d="M27.459,16.29a7.67,7.67,0,1,0-7.67,7.67,7.678,7.678,0,0,0,7.67-7.67" transform="translate(14.044 9.984)"/><path d="M55.513,25.4V41.506a3.068,3.068,0,1,1-6.136,0V63.748a3.068,3.068,0,0,1-6.136,0,3.068,3.068,0,0,1-6.136,0V41.506a2.978,2.978,0,0,1-1.534,2.63V33.069a10.718,10.718,0,0,0-4.492-8.721,7.635,7.635,0,0,1,7.56-6.618h9.2a7.678,7.678,0,0,1,7.67,7.67" transform="translate(35.911 20.233)"/><path d="M48.459,18.4a7.67,7.67,0,1,0-7.67,7.67,7.678,7.678,0,0,0,7.67-7.67" transform="translate(38.377 12.428)"/><path d="M37.24,34.3a6.182,6.182,0,0,1-4.164,1.359l-.131,1.928H29.088l-.131-4.777h1.534a7.183,7.183,0,0,0,3-.482,1.79,1.79,0,0,0,1.052-1.775,2.012,2.012,0,0,0-.482-1.4,1.867,1.867,0,0,0-1.359-.526,1.8,1.8,0,0,0-1.424.548,1.961,1.961,0,0,0-.5,1.4h-4.12a5.215,5.215,0,0,1,.657-2.8,4.6,4.6,0,0,1,2.1-1.972,7.148,7.148,0,0,1,3.353-.745,6.508,6.508,0,0,1,4.383,1.424A5.1,5.1,0,0,1,38.8,30.533,4.717,4.717,0,0,1,37.24,34.28m-4.3,9.269a2.663,2.663,0,0,1-1.863.679A2.621,2.621,0,0,1,29.2,43.55a2.33,2.33,0,0,1,0-3.375,2.854,2.854,0,0,1,3.747,0,2.268,2.268,0,0,1,.723,1.709,2.175,2.175,0,0,1-.723,1.665m4.448-22.33h-9.2a7.678,7.678,0,0,0-7.67,7.67V45a3.068,3.068,0,1,0,6.136,0V67.238a3.068,3.068,0,1,0,6.136,0,3.068,3.068,0,1,0,6.136,0V45a3.068,3.068,0,1,0,6.136,0V28.89a7.678,7.678,0,0,0-7.67-7.67" transform="translate(23.709 24.216)"/><path d="M37.959,21.9a7.67,7.67,0,1,1-7.67-7.67,7.678,7.678,0,0,1,7.67,7.67" transform="translate(26.21 16.482)"/></svg>