<svg xmlns="http://www.w3.org/2000/svg" xmlns:xlink="http://www.w3.org/1999/xlink" width="199" height="47" viewBox="0 0 199 47"><defs><style>.a{fill:#91b9dc;}.b,.c{stroke:none;}.c{fill:#462c6b;}.d{filter:url(#a);}</style><filter id="a" x="0" y="0" width="199" height="47" filterUnits="userSpaceOnUse"><feOffset dx="4" dy="4" input="SourceAlpha"/><feGaussianBlur stdDeviation="2" result="b"/><feFlood flood-opacity="0.549"/><feComposite operator="in" in2="b"/><feComposite in="SourceGraphic"/></filter></defs><g class="d" transform="matrix(1, 0, 0, 1, 0, 0)"><g class="a" transform="translate(2 2)"><path class="b" d="M 183 34.5 L 4 34.5 C 2.070095300674438 34.5 0.5 32.92990493774414 0.5 31 L 0.5 4 C 0.5 2.070095300674438 2.070095300674438 0.5 4 0.5 L 183 0.5 C 184.9299011230469 0.5 186.5 2.070095300674438 186.5 4 L 186.5 31 C 186.5 32.92990493774414 184.9299011230469 34.5 183 34.5 Z"/><path class="c" d="M 4 1 C 2.345779418945312 1 1 2.345787048339844 1 4 L 1 31 C 1 32.65421295166016 2.345779418945312 34 4 34 L 183 34 C 184.6542205810547 34 186 32.65421295166016 186 31 L 186 4 C 186 2.345787048339844 184.6542205810547 1 183 1 L 4 1 M 4 0 L 183 0 C 185.2091369628906 0 187 1.790855407714844 187 4 L 187 31 C 187 33.20914459228516 185.2091369628906 35 183 35 L 4 35 C 1.790863037109375 35 0 33.20914459228516 0 31 L 0 4 C 0 1.790855407714844 1.790863037109375 0 4 0 Z"/></g></g></svg>