<svg xmlns="http://www.w3.org/2000/svg" xmlns:xlink="http://www.w3.org/1999/xlink" width="363" height="359" viewBox="0 0 363 359"><defs><style>.a{fill:#f6f1ff;}.b,.c{stroke:none;}.c{fill:#462c6b;}.d{filter:url(#a);}</style><filter id="a" x="0" y="0" width="363" height="359" filterUnits="userSpaceOnUse"><feOffset dy="6" input="SourceAlpha"/><feGaussianBlur stdDeviation="3" result="b"/><feFlood flood-opacity="0.161"/><feComposite operator="in" in2="b"/><feComposite in="SourceGraphic"/></filter></defs><g class="d" transform="matrix(1, 0, 0, 1, 0, 0)"><g class="a" transform="translate(9 3)"><path class="b" d="M 325 339 L 20 339 C 15.19204521179199 339 10.67181777954102 337.127685546875 7.272090911865234 333.7279052734375 C 3.872318267822266 330.3281860351562 2 325.8079528808594 2 321 L 2 20 C 2 15.19204521179199 3.872318267822266 10.67181777954102 7.272090911865234 7.272090911865234 C 10.67181777954102 3.872318267822266 15.19204521179199 2 20 2 L 325 2 C 329.8079528808594 2 334.3281860351562 3.872318267822266 337.7279052734375 7.272090911865234 C 341.127685546875 10.67181777954102 343 15.19204521179199 343 20 L 343 321 C 343 325.8079528808594 341.127685546875 330.3281860351562 337.7279052734375 333.7279052734375 C 334.3281860351562 337.127685546875 329.8079528808594 339 325 339 Z"/><path class="c" d="M 20 4 C 15.72628784179688 4 11.70831298828125 5.664276123046875 8.686309814453125 8.686309814453125 C 5.664276123046875 11.70831298828125 4 15.72628784179688 4 20 L 4 321 C 4 325.2737426757812 5.664276123046875 329.2916870117188 8.686309814453125 332.3136901855469 C 11.70831298828125 335.3357238769531 15.72628784179688 337 20 337 L 325 337 C 329.2737426757812 337 333.2916870117188 335.3357238769531 336.3136901855469 332.3136901855469 C 339.3357238769531 329.2916870117188 341 325.2737426757812 341 321 L 341 20 C 341 15.72628784179688 339.3357238769531 11.70831298828125 336.3136901855469 8.686309814453125 C 333.2916870117188 5.664276123046875 329.2737426757812 4 325 4 L 20 4 M 20 0 L 325 0 C 336.0456848144531 0 345 8.954315185546875 345 20 L 345 321 C 345 332.0456848144531 336.0456848144531 341 325 341 L 20 341 C 8.954315185546875 341 0 332.0456848144531 0 321 L 0 20 C 0 8.954315185546875 8.954315185546875 0 20 0 Z"/></g></g></svg>