<svg xmlns="http://www.w3.org/2000/svg" xmlns:xlink="http://www.w3.org/1999/xlink" width="100" height="42" viewBox="0 0 100 42"><defs><style>.a{fill:#99b8d9;}.b,.c{stroke:none;}.c{fill:#462c6b;}.d{filter:url(#a);}</style><filter id="a" x="0" y="0" width="100" height="42" filterUnits="userSpaceOnUse"><feOffset dx="3" dy="3" input="SourceAlpha"/><feGaussianBlur stdDeviation="1.5" result="b"/><feFlood flood-opacity="0.549"/><feComposite operator="in" in2="b"/><feComposite in="SourceGraphic"/></filter></defs><g class="d" transform="matrix(1, 0, 0, 1, 0, 0)"><g class="a" transform="translate(1.5 1.5)"><path class="b" d="M 87 32.5 L 4 32.5 C 2.070094108581543 32.5 0.5 30.92990493774414 0.5 29 L 0.5 4 C 0.5 2.070094108581543 2.070094108581543 0.5 4 0.5 L 87 0.5 C 88.92990875244141 0.5 90.5 2.070094108581543 90.5 4 L 90.5 29 C 90.5 30.92990493774414 88.92990875244141 32.5 87 32.5 Z"/><path class="c" d="M 4 1 C 2.345802307128906 1 1 2.345800399780273 1 4 L 1 29 C 1 30.65419960021973 2.345802307128906 32 4 32 L 87 32 C 88.65419769287109 32 90 30.65419960021973 90 29 L 90 4 C 90 2.345800399780273 88.65419769287109 1 87 1 L 4 1 M 4 0 L 87 0 C 89.20913696289062 0 91 1.790863037109375 91 4 L 91 29 C 91 31.20913696289062 89.20913696289062 33 87 33 L 4 33 C 1.790863037109375 33 0 31.20913696289062 0 29 L 0 4 C 0 1.790863037109375 1.790863037109375 0 4 0 Z"/></g></g></svg>