<svg xmlns="http://www.w3.org/2000/svg" width="110" height="110" viewBox="0 0 110 110"><defs><style>.a{fill:#d6a8ce;}.b{fill:#231f20;}</style></defs><path class="a" d="M55,110a55,55,0,1,1,0-.021"/><path class="b" d="M61.425,68.118A8.153,8.153,0,1,1,69.5,59.965a8.119,8.119,0,0,1-8.078,8.153m13.219,3.706V25.871A1.454,1.454,0,0,0,73.3,24.41L39.394,21.551v-.974a1.635,1.635,0,0,0-.42-1.059l-.567-.572,5.56-5.612a1.505,1.505,0,0,0,0-2.1L39.814,7.066a1.472,1.472,0,0,0-2.077,0l-5.56,5.612-.567-.572a1.482,1.482,0,0,0-1.888-.169L19.44,19.349a1.489,1.489,0,0,0-.608,1.207V29.45a10.352,10.352,0,0,0,2.937,7.242l-3.042,3.071,4.154,4.193,3.294-3.346v6.628H32.05V40.61l3.294,3.346L39.5,39.763l-3.042-3.071a10.927,10.927,0,0,0,2.14-3.2l9.631,2.435V52.554H40.884V48.106H37.946v4.447h-23.5a1.48,1.48,0,0,0-1.469,1.482V57a1.48,1.48,0,0,0,1.469,1.482H40.884V71.824H35.009V62.93a1.48,1.48,0,0,0-1.469-1.482H24.727a1.48,1.48,0,0,0-1.469,1.482v8.894H10.04v8.894H77.623V71.824H74.686Z" transform="translate(11.221 7.418)"/><path class="b" d="M40.192,33.776a3.706,3.706,0,1,1-3.706-3.706,3.7,3.7,0,0,1,3.706,3.706" transform="translate(36.216 33.209)"/></svg>