<svg xmlns="http://www.w3.org/2000/svg" width="110" height="110" viewBox="0 0 110 110"><defs><style>.a{fill:#b8babc;}</style></defs><path class="a" d="M55,110a55,55,0,1,1,0-.021" transform="translate(0 0)"/><path d="M65.333,31.432,76.491,52.155H54.175ZM34.854,52.155H12.538L23.7,31.432Zm15.568.887a1.484,1.484,0,0,0-.082.222c-.021.111-.062.222-.082.355v.089c0,5.076,6.625,9.065,15.076,9.065s15.076-3.99,15.076-9.065v-.089a.99.99,0,0,0-.082-.355.332.332,0,0,0-.082-.222.171.171,0,0,0-.041-.133L67.651,29.57a3.983,3.983,0,0,0,1.272-2.948,3.733,3.733,0,0,0-3.589-3.879A3.483,3.483,0,0,0,62.769,23.9a25.535,25.535,0,0,0-16.819-7.78V14.055A3.9,3.9,0,0,0,48.1,10.509a3.6,3.6,0,1,0-7.179,0,3.9,3.9,0,0,0,2.154,3.546v2.061A25.491,25.491,0,0,0,26.26,23.9,3.483,3.483,0,0,0,23.7,22.743a3.733,3.733,0,0,0-3.589,3.879,3.947,3.947,0,0,0,1.272,2.948L8.825,52.909a.922.922,0,0,1-.041.133.971.971,0,0,0-.082.222c-.021.111-.062.222-.082.355v.089c0,5.076,6.625,9.065,15.076,9.065s15.076-3.99,15.076-9.065v-.089a.99.99,0,0,0-.082-.355.332.332,0,0,0-.082-.222.171.171,0,0,0-.041-.133L26.013,29.57a3.853,3.853,0,0,0,1.231-2.549,5.525,5.525,0,0,0,.861-.731,22.743,22.743,0,0,1,14.973-7.048v42.8a3.9,3.9,0,0,0-2.154,3.546,5.29,5.29,0,0,0,.123,1A7.835,7.835,0,0,0,37.356,73.1,26.749,26.749,0,0,0,25.6,80.06a3.542,3.542,0,0,1-2.543,1.064h-.082a1.556,1.556,0,0,0,0,3.1H66.051a1.556,1.556,0,0,0,0-3.1h-.082a3.542,3.542,0,0,1-2.543-1.064A27.076,27.076,0,0,0,51.673,73.1a7.835,7.835,0,0,0-3.692-6.516,5.071,5.071,0,0,0,.123-1A3.9,3.9,0,0,0,45.95,62.04V19.219a22.7,22.7,0,0,1,14.973,7.048,6.518,6.518,0,0,0,.841.731,3.917,3.917,0,0,0,1.251,2.549L50.463,52.887a.922.922,0,0,1-.041.133" transform="translate(10.485 8.065)"/></svg>