<svg xmlns="http://www.w3.org/2000/svg" width="113" height="113" viewBox="0 0 113 113"><defs><style>.a{fill:#391d33;}.b{fill:#fff;}</style></defs><path class="a" d="M56.5,113a56.5,56.5,0,1,1,0-.022"/><path class="b" d="M60.381,19.545c.763,1.548-2.834,2.769-4.491,2.769-.153,1.112-.153,1.9-4.033,1.9a3.254,3.254,0,0,1-3.88,1.548c0,1.548-2.333,2.333-5.406,1.548,0,1.548-3.88,2.333-5.428.763-1.548,1.548-3.1,2.333-5.428,0-1.046,1.591-2.9,1.591-4.4,1.068l.218-9.7a6.766,6.766,0,0,0,2.856-9.919c13.145-.872,16.372,6.8,28.58,6.8,3.924,0,3.444,1.482,1.4,3.226" transform="translate(31.562 10.95)"/><path class="b" d="M43.637,29.139c-1.482.5-3.314.48-4.36-1.09-2.333,2.333-3.88,1.548-5.428,0-1.548,1.548-5.428.785-5.428-.763-3.1.763-5.428,0-5.428-1.548a3.254,3.254,0,0,1-3.88-1.548c-3.88,0-3.88-.785-4.033-1.9-1.657,0-5.276-1.2-4.491-2.747-2.049-1.744-2.507-3.226,1.4-3.226,12.23,0,15.434-7.7,28.6-6.8a6.73,6.73,0,0,0,2.79,9.9l.218,9.745Z" transform="translate(10.447 10.949)"/><path class="b" d="M45.858,54.978l-.131-.2-.065-.065h0a6.183,6.183,0,0,0-2.79-2.071,9.2,9.2,0,0,0,1.657-.7C47.144,48.5,42,47.152,37.4,46.41c-.392-.065-.785-.109-1.155-.174l-.153,7h1.548a8.819,8.819,0,0,1,1.068.087c1.9.2,4.316.458,5.712,2.245a.067.067,0,0,0,.022.044,4.226,4.226,0,0,1,.61,1.373,4.841,4.841,0,0,1-.48,3.357,4.209,4.209,0,0,1-1.482,1.548,3.539,3.539,0,0,0-.392-.436,5.612,5.612,0,0,0-2.071-1.221,2.174,2.174,0,0,0,1.831-2.2c-.044-.741-.24-.959-1.046-1.308a14.52,14.52,0,0,0-2.747-.5l-1.526-.065H35.961l-.109,4.84c.392.022.763.065,1.155.087a12.332,12.332,0,0,1,3.335.719,2.756,2.756,0,0,1,.567.283.339.339,0,0,1,.174.131,1.423,1.423,0,0,1,.349.283s.044.044.065.044a.313.313,0,0,1,.065.044h0a2.013,2.013,0,0,1,.174.2,3.593,3.593,0,0,1,.567,3.292,3.648,3.648,0,0,1-1.809,2.267,3.59,3.59,0,0,0-.48-.523c-.065-.044-.109-.109-.153-.131l-.2-.153a5.96,5.96,0,0,0-.937-.567,4.071,4.071,0,0,0,1.025-.5,1.806,1.806,0,0,0,.5-1.94c-.131-.458-.981-.828-2.027-.981q-.654-.1-1.308-.131l-1.155-.065-.087,4.36a9.838,9.838,0,0,1,1.155.218,5.925,5.925,0,0,1,1.94.872c.044.044.109.087.153.131a2.767,2.767,0,0,1,.85,1.373,4.2,4.2,0,0,1-1.264,4.011c-.349-.218-.676-.349-.872-.458l-.436-.174a.856.856,0,0,1-.131-.044,3.726,3.726,0,0,0,.305-.24c1.373-1.264,1.373-3.292-.567-3.706-.087-.022-.174-.065-.283-.087a5.232,5.232,0,0,0-.872-.131l-.109,5.232a2.913,2.913,0,0,0,.392.153c.2.065.414.174.632.262a.23.23,0,0,1,.109.044,1.393,1.393,0,0,1,.349.131h.065c.174.109.392.2.632.349a2.085,2.085,0,0,1,1.2,1.788.531.531,0,0,1-.567.545.549.549,0,0,1-.589-.589q0-.36-.719-.719c-.131-.065-.24-.087-.371-.153-.392-.153-.785-.305-1.155-.436l-.065,2.267h-.392L35,75.906q-.589-.2-1.177-.458l-.327-.131a5.655,5.655,0,0,1-1.286-.785,4.24,4.24,0,0,1-1.5-4.207c.174.044.349.087.5.131a9.178,9.178,0,0,0,1.068.2.914.914,0,0,0-.087.349,2.841,2.841,0,0,0,1.591,2.878,7.515,7.515,0,0,0,1.177.61l-.131-5.123c-.371-.022-.763-.065-1.155-.109a13.362,13.362,0,0,1-2.115-.327,6.266,6.266,0,0,1-1.591-.567A3.648,3.648,0,0,1,28.156,66.1a4.581,4.581,0,0,1,0-2.115,2.508,2.508,0,0,1,.371.131,9.037,9.037,0,0,0,1.679.392v.022c-.589,2.027,1.461,2.594,3.248,2.834a.425.425,0,0,1,.174.022c.392.065.785.109,1.177.174L34.7,63.306c-.371,0-.763-.022-1.155-.044-.676-.022-1.352-.065-2.049-.131-.327-.022-.676-.087-1.025-.131a1.146,1.146,0,0,1-.371-.087,1.653,1.653,0,0,1-.349-.065c-.24-.065-.458-.131-.7-.2a2.018,2.018,0,0,1-.218-.065l-.109-.044h0a4.721,4.721,0,0,1-2.7-2.136,4.637,4.637,0,0,1-.458-3.423.693.693,0,0,0,.2.065,15.371,15.371,0,0,0,2.442.61,1.409,1.409,0,0,0-.087.436c.087,2.158,2.551,2.594,5.406,2.79l1.155.087L34.565,56.2H33.41a19.272,19.272,0,0,0-1.984.087h-.087a15.6,15.6,0,0,1-5.123-.741,7.873,7.873,0,0,1-1.482-.61c-.218-.131-.436-.24-.654-.371a5.473,5.473,0,0,1-1.591-6.736,6.737,6.737,0,0,1,1.918-2.267c.436.153.894.305,1.352.436a39.011,39.011,0,0,0,4.534.937c-3.51.828-6.322,2.289-4.251,4.992,2.136,1.177,4.643,1.286,7.194,1.286H34.5l-.174-7.238c-.414-.044-.807-.109-1.155-.153-.48-.065-.894-.131-1.2-.2-.48-.087-.959-.153-1.439-.24-.458-.065-.937-.131-1.439-.24-.458-.065-.916-.174-1.352-.262-.5-.109-1.046-.24-1.548-.371-.414-.131-.85-.24-1.264-.414h0a15.612,15.612,0,0,1-3.619-1.809C16.995,39.369,17.8,33.5,21.006,30.1c1.264-1.417,4.861-4.622,7.39-4.622a2.2,2.2,0,0,1,2.158,1.5,2.3,2.3,0,0,1-1.5,2.987c-2.834.785-6.976,4.36-6.409,7.325.392,1.526,2.071,2.333,3.619,2.943a42.677,42.677,0,0,0,6.823,1.613c.392.065.785.131,1.155.174l-.61-27.839a6.909,6.909,0,0,0,1.657.24h.044a7.778,7.778,0,0,0,1.613-.2l-.632,28.187c.392.065.785.131,1.155.2A40.211,40.211,0,0,1,43,43.969a7.3,7.3,0,0,1,1.417.523c4.97,2.267,5.6,8.022,1.417,10.464" transform="translate(21.213 16.181)"/><path class="b" d="M34.755,14.233a5.6,5.6,0,1,1-5.6-5.6,5.6,5.6,0,0,1,5.6,5.6" transform="translate(27.347 10.018)"/><rect class="b" transform="matrix(0.716, -0.699, 0.699, 0.716, 52.207, 80.633)"/><path class="b" d="M24.867,42.67a1.612,1.612,0,0,0-.436,1.177.578.578,0,0,0,1.155-.044c0-.174.153-.349.414-.545a2.2,2.2,0,0,1-.327-.153,5.761,5.761,0,0,1-.807-.436" transform="translate(28.408 49.446)"/><path class="b" d="M31.42,19.509a2.32,2.32,0,1,0-1.461,4.4c2.834.807,6.976,4.36,6.387,7.3-.392,1.526-2.071,2.333-3.619,2.943A34.417,34.417,0,0,1,28.15,35.38,36.212,36.212,0,0,1,31.878,36.4a8.97,8.97,0,0,1,1.613.61,8.7,8.7,0,0,1,1.33.741,14.79,14.79,0,0,0,2.9-1.526c7.129-5.319.24-14.693-6.3-16.7" transform="translate(32.682 22.448)"/></svg>